<mxfile host="Electron" modified="2023-06-18T12:24:34.228Z" agent="Mozilla/5.0 (Macintosh; Intel Mac OS X 10_15_7) AppleWebKit/537.36 (KHTML, like Gecko) draw.io/21.3.7 Chrome/112.0.5615.204 Electron/24.5.0 Safari/537.36" etag="AiqVc77V045VNQJrJcND" version="21.3.7" type="device">
  <diagram name="main" id="J1fdcHET4nZiPfC8z0tZ">
    <mxGraphModel dx="2426" dy="652" grid="1" gridSize="10" guides="1" tooltips="1" connect="1" arrows="1" fold="1" page="1" pageScale="1" pageWidth="1100" pageHeight="850" math="0" shadow="0">
      <root>
        <mxCell id="ZsZbsUSyN41RHjL-2dsX-0" />
        <mxCell id="ZsZbsUSyN41RHjL-2dsX-1" parent="ZsZbsUSyN41RHjL-2dsX-0" />
        <mxCell id="LDu3OrkUY8mVagmV5dOS-11" value="Z" style="rounded=1;whiteSpace=wrap;html=1;sketch=0;container=1;recursiveResize=0;verticalAlign=top;arcSize=6;fontStyle=1;autosize=0;points=[];absoluteArcSize=1;shadow=1;strokeColor=#001DBC;fillColor=#0050ef;fontColor=#ffffff;" vertex="1" parent="ZsZbsUSyN41RHjL-2dsX-1">
          <mxGeometry x="-784" y="258" width="134" height="125" as="geometry">
            <mxRectangle x="-98" y="-1230" width="99" height="26" as="alternateBounds" />
          </mxGeometry>
        </mxCell>
        <mxCell id="Jz4AZIc_iSOu6i9Cu88N-4" style="edgeStyle=orthogonalEdgeStyle;rounded=0;orthogonalLoop=1;jettySize=auto;html=1;exitX=1;exitY=0.5;exitDx=0;exitDy=0;exitPerimeter=0;" edge="1" parent="LDu3OrkUY8mVagmV5dOS-11" source="LDu3OrkUY8mVagmV5dOS-13">
          <mxGeometry relative="1" as="geometry">
            <mxPoint x="184" y="49" as="targetPoint" />
          </mxGeometry>
        </mxCell>
        <mxCell id="LDu3OrkUY8mVagmV5dOS-13" value="childout" style="rounded=1;whiteSpace=wrap;html=1;sketch=0;points=[[0,0.5,0,0,0],[1,0.5,0,0,0]];fillColor=#1ba1e2;fontColor=#ffffff;strokeColor=#006EAF;arcSize=50;" vertex="1" parent="LDu3OrkUY8mVagmV5dOS-11">
          <mxGeometry x="84.75" y="36" width="66" height="25" as="geometry" />
        </mxCell>
        <mxCell id="LDu3OrkUY8mVagmV5dOS-14" value="childerr" style="rounded=1;whiteSpace=wrap;html=1;sketch=0;points=[[0,0.5,0,0,0],[1,0.5,0,0,0]];fillColor=#1ba1e2;fontColor=#ffffff;strokeColor=#006EAF;arcSize=50;" vertex="1" parent="LDu3OrkUY8mVagmV5dOS-11">
          <mxGeometry x="84.75" y="82.5" width="66" height="25" as="geometry" />
        </mxCell>
        <mxCell id="LDu3OrkUY8mVagmV5dOS-12" value="childin" style="rounded=1;whiteSpace=wrap;html=1;sketch=0;points=[[0,0.5,0,0,0],[1,0.5,0,0,0]];arcSize=50;" vertex="1" parent="LDu3OrkUY8mVagmV5dOS-11">
          <mxGeometry x="-26" y="36" width="66" height="25" as="geometry" />
        </mxCell>
        <mxCell id="Jz4AZIc_iSOu6i9Cu88N-2" style="edgeStyle=orthogonalEdgeStyle;rounded=0;orthogonalLoop=1;jettySize=auto;html=1;exitX=1;exitY=0.5;exitDx=0;exitDy=0;exitPerimeter=0;entryX=0;entryY=0.5;entryDx=0;entryDy=0;entryPerimeter=0;" edge="1" parent="ZsZbsUSyN41RHjL-2dsX-1" source="Jz4AZIc_iSOu6i9Cu88N-0" target="LDu3OrkUY8mVagmV5dOS-12">
          <mxGeometry relative="1" as="geometry" />
        </mxCell>
        <mxCell id="Jz4AZIc_iSOu6i9Cu88N-0" value="cin" style="rhombus;whiteSpace=wrap;html=1;rounded=1;fontStyle=1;glass=0;sketch=0;fontSize=12;points=[[0,0.5,0,0,0],[0.5,0,0,0,0],[0.5,1,0,0,0],[1,0.5,0,0,0]];shadow=1;" vertex="1" parent="ZsZbsUSyN41RHjL-2dsX-1">
          <mxGeometry x="-1000" y="266.5" width="80" height="80" as="geometry" />
        </mxCell>
        <mxCell id="Jz4AZIc_iSOu6i9Cu88N-1" value="cerr" style="rhombus;whiteSpace=wrap;html=1;rounded=1;fillColor=#0050ef;fontColor=#ffffff;strokeColor=#001DBC;fontStyle=1;glass=0;sketch=0;fontSize=12;points=[[0,0.5,0,0,0],[0.5,0,0,0,0],[0.5,1,0,0,0],[1,0.5,0,0,0]];shadow=1;" vertex="1" parent="ZsZbsUSyN41RHjL-2dsX-1">
          <mxGeometry x="-560" y="313" width="80" height="80" as="geometry" />
        </mxCell>
        <mxCell id="Jz4AZIc_iSOu6i9Cu88N-3" style="edgeStyle=orthogonalEdgeStyle;rounded=0;orthogonalLoop=1;jettySize=auto;html=1;entryX=0;entryY=0.5;entryDx=0;entryDy=0;entryPerimeter=0;" edge="1" parent="ZsZbsUSyN41RHjL-2dsX-1" source="LDu3OrkUY8mVagmV5dOS-14" target="Jz4AZIc_iSOu6i9Cu88N-1">
          <mxGeometry relative="1" as="geometry" />
        </mxCell>
      </root>
    </mxGraphModel>
  </diagram>
</mxfile>
